<svg xmlns="http://www.w3.org/2000/svg" xmlns:xlink="http://www.w3.org/1999/xlink" width="32px" height="32px" viewBox="0 0 32 32" version="1.1">
<defs>
<radialGradient id="radial0" gradientUnits="userSpaceOnUse" cx="23" cy="33.938" fx="23" fy="33.938" r="18.25" gradientTransform="matrix(0.666667,0,0,0.289958,0.0833333,11.450412)">
<stop offset="0" style="stop-color:rgb(0%,0%,0%);stop-opacity:1;"/>
<stop offset="1" style="stop-color:rgb(0%,0%,0%);stop-opacity:0;"/>
</radialGradient>
<radialGradient id="radial1" gradientUnits="userSpaceOnUse" cx="18.558001" cy="22.299999" fx="18.558001" fy="22.299999" r="19.229" gradientTransform="matrix(1.77275,0,0,1.29668,-16.34,-6.616)">
<stop offset="0" style="stop-color:rgb(52.156863%,48.627451%,38.823529%);stop-opacity:1;"/>
<stop offset="1" style="stop-color:rgb(13.333333%,12.156863%,9.803922%);stop-opacity:1;"/>
</radialGradient>
<linearGradient id="linear0" gradientUnits="userSpaceOnUse" x1="32.349998" y1="28.083" x2="21.212999" y2="30.292999" gradientTransform="matrix(0.666667,0,0,0.666667,-2.558,0.230667)">
<stop offset="0" style="stop-color:rgb(0%,0%,0%);stop-opacity:1;"/>
<stop offset="1" style="stop-color:rgb(0%,0%,0%);stop-opacity:0;"/>
</linearGradient>
<filter id="alpha" filterUnits="objectBoundingBox" x="0%" y="0%" width="100%" height="100%">
  <feColorMatrix type="matrix" in="SourceGraphic" values="0 0 0 0 1 0 0 0 0 1 0 0 0 0 1 0 0 0 1 0"/>
</filter>
<mask id="mask0">
  <g filter="url(#alpha)">
<rect x="0" y="0" width="32" height="32" style="fill:rgb(0%,0%,0%);fill-opacity:0.184314;stroke:none;"/>
  </g>
</mask>
<linearGradient id="linear1" gradientUnits="userSpaceOnUse" x1="14.969" y1="19.111" x2="39.525002" y2="46.986" >
<stop offset="0" style="stop-color:rgb(100%,100%,100%);stop-opacity:1;"/>
<stop offset="1" style="stop-color:rgb(100%,100%,100%);stop-opacity:0;"/>
</linearGradient>
<clipPath id="clip1">
  <rect x="0" y="0" width="32" height="32"/>
</clipPath>
<g id="surface5" clip-path="url(#clip1)">
<path style="fill:none;stroke-width:1;stroke-linecap:butt;stroke-linejoin:miter;stroke:url(#linear1);stroke-miterlimit:10;" d="M 36.966797 11.841797 C 36.251953 13.019531 35.34375 14.0625 34.283203 14.935547 C 31.652344 17.115234 27.228516 19.101562 19.998047 19.277344 C 15.773438 19.382812 13.048828 17.34375 11.373047 15.527344 L 11.25 19.998047 C 11.384766 20.419922 11.666016 21.392578 11.185547 22.716797 C 10.675781 24.146484 9.035156 25.611328 6.216797 26.71875 C 6.46875 27.240234 6.714844 27.761719 7.470703 28.5 C 8.496094 29.507812 9.925781 30.585938 11.625 31.564453 C 15.023438 33.509766 19.429688 35.056641 23.53125 35.126953 C 27.638672 35.197266 31.388672 33.890625 33.966797 30.123047 C 36.345703 26.654297 37.652344 20.777344 36.966797 11.841797 Z M 36.966797 11.841797 " transform="matrix(0.666667,0,0,0.666667,0,0)"/>
</g>
<radialGradient id="radial2" gradientUnits="userSpaceOnUse" cx="69.473" cy="19.598" fx="69.473" fy="19.598" r="3.515" gradientTransform="matrix(1.31849,0,0,1.31849,-22.125999,-6.242)">
<stop offset="0" style="stop-color:rgb(100%,100%,100%);stop-opacity:1;"/>
<stop offset="1" style="stop-color:rgb(72.54902%,72.54902%,69.019608%);stop-opacity:1;"/>
</radialGradient>
<radialGradient id="radial3" gradientUnits="userSpaceOnUse" cx="6.024" cy="25.271" fx="6.024" fy="25.271" r="4.831" gradientTransform="matrix(0.91616,0.09319,-0.10877,1.0693,3.254,-3.03)">
<stop offset="0" style="stop-color:rgb(35.686275%,40.392157%,41.960784%);stop-opacity:1;"/>
<stop offset="1" style="stop-color:rgb(7.843137%,9.019608%,9.411765%);stop-opacity:1;"/>
</radialGradient>
<mask id="mask1">
  <g filter="url(#alpha)">
<rect x="0" y="0" width="32" height="32" style="fill:rgb(0%,0%,0%);fill-opacity:0.282353;stroke:none;"/>
  </g>
</mask>
<linearGradient id="linear2" gradientUnits="userSpaceOnUse" x1="6.305" y1="23.362" x2="5.985" y2="31.57" gradientTransform="matrix(1,0,0,1,0.000000000000003553,-0.000000000000000888)">
<stop offset="0" style="stop-color:rgb(100%,100%,100%);stop-opacity:1;"/>
<stop offset="1" style="stop-color:rgb(100%,100%,100%);stop-opacity:0;"/>
</linearGradient>
<clipPath id="clip2">
  <rect x="0" y="0" width="32" height="32"/>
</clipPath>
<g id="surface8" clip-path="url(#clip2)">
<path style="fill:none;stroke-width:1;stroke-linecap:butt;stroke-linejoin:miter;stroke:url(#linear2);stroke-miterlimit:10;" d="M 6.090495 22.156457 C 5.29479 22.153454 4.542734 22.600423 3.905813 23.499661 C 3.268892 24.3989 2.811548 25.732788 2.811333 27.218726 C 2.811118 28.704664 3.270179 30.036791 3.905916 30.937553 C 4.541652 31.838316 5.295451 32.278456 6.091156 32.281459 C 6.890374 32.279772 7.671708 31.803488 8.313319 30.907762 C 8.95024 30.008523 9.402913 28.700419 9.407818 27.217994 C 9.404521 25.736746 8.957193 24.428049 8.313254 23.528464 C 7.674005 22.632391 6.889713 22.154771 6.090495 22.156457 Z M 6.090495 22.156457 " transform="matrix(0.533591,-0.399656,0.399656,0.533591,-10.182929,4.885061)"/>
</g>
<radialGradient id="radial4" gradientUnits="userSpaceOnUse" cx="69.473" cy="19.598" fx="69.473" fy="19.598" r="3.515" gradientTransform="matrix(1.31849,0,0,1.31849,-22.125999,-6.242)">
<stop offset="0" style="stop-color:rgb(100%,100%,100%);stop-opacity:1;"/>
<stop offset="1" style="stop-color:rgb(72.54902%,72.54902%,69.019608%);stop-opacity:1;"/>
</radialGradient>
<linearGradient id="linear3" gradientUnits="userSpaceOnUse" x1="37.018002" y1="19.24" x2="27.754" y2="11.182" gradientTransform="matrix(1,0,0,1,-49.305,1.878)">
<stop offset="0" style="stop-color:rgb(43.137255%,23.921569%,3.529412%);stop-opacity:1;"/>
<stop offset="0.242" style="stop-color:rgb(91.764706%,50.588235%,7.45098%);stop-opacity:1;"/>
<stop offset="0.621" style="stop-color:rgb(36.078431%,20%,2.745098%);stop-opacity:1;"/>
<stop offset="1" style="stop-color:rgb(87.843137%,48.627451%,7.058824%);stop-opacity:1;"/>
</linearGradient>
<linearGradient id="linear4" gradientUnits="userSpaceOnUse" x1="19.395" y1="30.000999" x2="23.108999" y2="33.438999" gradientTransform="matrix(1,0,0,1,-46.407001,-1.803)">
<stop offset="0" style="stop-color:rgb(74.117647%,74.117647%,74.117647%);stop-opacity:1;"/>
<stop offset="0.333" style="stop-color:rgb(88.627451%,88.627451%,88.627451%);stop-opacity:1;"/>
<stop offset="0.667" style="stop-color:rgb(63.921569%,63.921569%,63.921569%);stop-opacity:1;"/>
<stop offset="1" style="stop-color:rgb(86.666667%,86.666667%,86.666667%);stop-opacity:1;"/>
</linearGradient>
<radialGradient id="radial5" gradientUnits="userSpaceOnUse" cx="15.415" cy="35.356998" fx="15.415" fy="35.356998" r="7.579" gradientTransform="matrix(-0.120421,-0.408759,0.398347,-0.117353,15.164942,35.819191)">
<stop offset="0" style="stop-color:rgb(41.176471%,41.176471%,41.176471%);stop-opacity:1;"/>
<stop offset="1" style="stop-color:rgb(0%,0%,0%);stop-opacity:1;"/>
</radialGradient>
<mask id="mask2">
  <g filter="url(#alpha)">
<rect x="0" y="0" width="32" height="32" style="fill:rgb(0%,0%,0%);fill-opacity:0.529412;stroke:none;"/>
  </g>
</mask>
<clipPath id="clip3">
  <rect x="0" y="0" width="32" height="32"/>
</clipPath>
<g id="surface11" clip-path="url(#clip3)">
<path style=" stroke:none;fill-rule:nonzero;fill:rgb(100%,100%,100%);fill-opacity:1;" d="M 28.015625 23.84375 C 28.386719 23.734375 28.777344 23.949219 28.886719 24.320312 C 28.996094 24.691406 28.785156 25.078125 28.414062 25.191406 C 28.042969 25.300781 27.652344 25.085938 27.542969 24.714844 C 27.433594 24.34375 27.644531 23.953125 28.015625 23.84375 Z M 28.015625 23.84375 "/>
</g>
<mask id="mask3">
  <g filter="url(#alpha)">
<rect x="0" y="0" width="32" height="32" style="fill:rgb(0%,0%,0%);fill-opacity:0.427451;stroke:none;"/>
  </g>
</mask>
<linearGradient id="linear5" gradientUnits="userSpaceOnUse" x1="13.236" y1="37.751999" x2="7.752" y2="42.282001" gradientTransform="matrix(0.0448789,-0.226531,0.226531,0.0448789,20.158687,26.028073)">
<stop offset="0" style="stop-color:rgb(100%,100%,100%);stop-opacity:1;"/>
<stop offset="1" style="stop-color:rgb(100%,100%,100%);stop-opacity:0;"/>
</linearGradient>
<clipPath id="clip4">
  <rect x="0" y="0" width="32" height="32"/>
</clipPath>
<g id="surface14" clip-path="url(#clip4)">
<path style=" stroke:none;fill-rule:nonzero;fill:url(#linear5);" d="M 30.0625 26.679688 C 30.0625 26.679688 29.800781 25.703125 29.226562 25.195312 C 29.023438 25.019531 29.277344 24.753906 29.46875 24.984375 C 29.882812 25.488281 30.058594 26.679688 30.058594 26.679688 Z M 30.0625 26.679688 "/>
</g>
<linearGradient id="linear6" gradientUnits="userSpaceOnUse" x1="26.163" y1="30.542999" x2="24.329" y2="30.985001" gradientTransform="matrix(0.666667,0,0,0.666667,0,0)">
<stop offset="0" style="stop-color:rgb(0%,0%,0%);stop-opacity:1;"/>
<stop offset="1" style="stop-color:rgb(0%,0%,0%);stop-opacity:0;"/>
</linearGradient>
</defs>
<g id="surface1">
<path style=" stroke:none;fill-rule:evenodd;fill:url(#radial0);" d="M 27.582031 21.292969 C 27.582031 24.214844 22.136719 26.585938 15.417969 26.585938 C 8.695312 26.585938 3.25 24.214844 3.25 21.292969 C 3.25 18.371094 8.695312 16 15.417969 16 C 22.136719 16 27.582031 18.371094 27.582031 21.292969 Z M 27.582031 21.292969 "/>
<path style="fill-rule:evenodd;fill:url(#radial1);stroke-width:1;stroke-linecap:butt;stroke-linejoin:miter;stroke:rgb(18.039216%,20.392157%,21.176471%);stroke-opacity:1;stroke-miterlimit:10;" d="M 10.371094 12.46875 C 10.371094 12.46875 13.248047 18.398438 19.974609 18.228516 C 34.066406 17.876953 36.539062 10.523438 36.890625 9.462891 C 37.242188 8.402344 37.787109 8.560547 37.910156 9.544922 C 42.509766 51.263672 6.011719 33.363281 4.716797 26.255859 C 11.964844 24.134766 10.195312 20.068359 10.195312 20.068359 Z M 10.371094 12.46875 " transform="matrix(0.666667,0,0,0.666667,0,0)"/>
<path style=" stroke:none;fill-rule:evenodd;fill:url(#linear0);" d="M 10.492188 20.042969 C 14.984375 20.941406 17.273438 20.109375 18.613281 19.074219 C 18.257812 18.617188 17.652344 18.117188 17.652344 18.117188 C 17.652344 18.117188 19.222656 18.554688 19.773438 19.265625 C 20.324219 19.976562 19.980469 20.414062 19.835938 21.324219 C 19.515625 20.527344 18.914062 20.226562 18.835938 19.910156 C 17.628906 21.574219 14.628906 21.503906 10.492188 20.042969 Z M 10.492188 20.042969 "/>
<use xlink:href="#surface5" mask="url(#mask0)"/>
<path style="fill-rule:evenodd;fill:url(#radial2);stroke-width:0.782608;stroke-linecap:butt;stroke-linejoin:miter;stroke:rgb(53.333336%,54.11765%,52.156866%);stroke-opacity:1;stroke-miterlimit:10;" d="M 72.657175 21.835196 C 72.657175 23.596062 71.231057 25.017595 69.474776 25.017595 C 67.71391 25.017595 66.292377 23.596062 66.292377 21.835196 C 66.292377 20.078915 67.71391 18.652797 69.474776 18.652797 C 71.231057 18.652797 72.657175 20.078915 72.657175 21.835196 Z M 72.657175 21.835196 " transform="matrix(0.851853,0,0,0.851853,-50.084666,-4.338667)"/>
<path style="fill-rule:evenodd;fill:url(#radial3);stroke-width:1;stroke-linecap:butt;stroke-linejoin:miter;stroke:rgb(0%,0%,0%);stroke-opacity:1;stroke-miterlimit:10;" d="M 10.428041 27.228231 C 10.431896 30.597879 8.490002 33.329649 6.097812 33.330623 C 3.709051 33.326845 1.76908 30.597876 1.765225 27.228228 C 1.766122 23.862008 3.708016 21.130238 6.100206 21.129264 C 8.492395 21.12829 10.428938 23.862011 10.428041 27.228231 Z M 10.428041 27.228231 " transform="matrix(0.540655,-0.390047,0.390047,0.540655,-9.852017,4.631512)"/>
<path style="fill-rule:evenodd;fill:rgb(18.039216%,20.392157%,21.176471%);fill-opacity:1;stroke-width:1.173913;stroke-linecap:butt;stroke-linejoin:miter;stroke:rgb(0%,0%,0%);stroke-opacity:1;stroke-miterlimit:10;" d="M 24.04148 21.834941 C 24.04148 23.107447 23.009719 24.132331 21.744091 24.132331 C 20.471585 24.132331 19.446701 23.107447 19.446701 21.834941 C 19.446701 20.569313 20.471585 19.537551 21.744091 19.537551 C 23.009719 19.537551 24.04148 20.569313 24.04148 21.834941 Z M 24.04148 21.834941 " transform="matrix(0.5679,0,0,0.5679,-2.618,2.264)"/>
<use xlink:href="#surface8" mask="url(#mask1)"/>
<path style=" stroke:none;fill-rule:evenodd;fill:rgb(100%,100%,100%);fill-opacity:1;" d="M 3.890625 15.5 C 3.890625 16.28125 3.363281 16.914062 2.710938 16.914062 C 2.058594 16.914062 1.53125 16.28125 1.53125 15.5 C 1.53125 14.71875 2.058594 14.085938 2.710938 14.085938 C 3.363281 14.085938 3.890625 14.71875 3.890625 15.5 Z M 3.890625 15.5 "/>
<path style=" stroke:none;fill-rule:evenodd;fill:rgb(100%,100%,100%);fill-opacity:1;" d="M 10.132812 14.0625 C 10.132812 14.5625 9.726562 14.964844 9.230469 14.964844 C 8.730469 14.964844 8.324219 14.5625 8.324219 14.0625 C 8.324219 13.5625 8.730469 13.160156 9.230469 13.160156 C 9.726562 13.160156 10.132812 13.5625 10.132812 14.0625 Z M 10.132812 14.0625 "/>
<path style="fill-rule:evenodd;fill:url(#radial4);stroke-width:0.666666;stroke-linecap:butt;stroke-linejoin:miter;stroke:rgb(53.333336%,54.11765%,52.156866%);stroke-opacity:1;stroke-miterlimit:10;" d="M 72.653666 21.837927 C 72.653666 23.595739 71.231791 25.017614 69.473979 25.017614 C 67.716166 25.017614 66.290385 23.595739 66.290385 21.837927 C 66.290385 20.080114 67.716166 18.654333 69.473979 18.654333 C 71.231791 18.654333 72.653666 20.080114 72.653666 21.837927 Z M 72.653666 21.837927 " transform="matrix(1,0,0,1,-54.778666,-7.279333)"/>
<path style="fill-rule:evenodd;fill:rgb(18.039216%,20.392157%,21.176471%);fill-opacity:1;stroke-width:1;stroke-linecap:butt;stroke-linejoin:miter;stroke:rgb(0%,0%,0%);stroke-opacity:1;stroke-miterlimit:10;" d="M 24.039125 21.839875 C 24.039125 23.1055 23.013734 24.13675 21.74225 24.13675 C 20.476625 24.13675 19.445375 23.1055 19.445375 21.839875 C 19.445375 20.568391 20.476625 19.537141 21.74225 19.537141 C 23.013734 19.537141 24.039125 20.568391 24.039125 21.839875 Z M 24.039125 21.839875 " transform="matrix(0.666667,0,0,0.666667,0.942667,0.471333)"/>
<path style=" stroke:none;fill-rule:evenodd;fill:rgb(100%,100%,100%);fill-opacity:1;" d="M 15.910156 14.324219 C 15.910156 14.910156 15.433594 15.382812 14.847656 15.382812 C 14.261719 15.382812 13.789062 14.910156 13.789062 14.324219 C 13.789062 13.738281 14.261719 13.261719 14.847656 13.261719 C 15.433594 13.261719 15.910156 13.738281 15.910156 14.324219 Z M 15.910156 14.324219 "/>
<path style="fill-rule:nonzero;fill:url(#linear3);stroke-width:2.460453;stroke-linecap:round;stroke-linejoin:miter;stroke:rgb(40.392157%,22.352941%,2.745098%);stroke-opacity:1;stroke-miterlimit:4;" d="M -23.367472 23.564857 L -19.655016 27.033175 C -11.312977 20.653526 -2.55438 6.942071 -2.55438 6.942071 C -0.58533 4.696649 -2.682073 3.19222 -4.732897 4.541853 C -4.732897 4.541853 -17.69204 14.656227 -23.367472 23.564857 Z M -23.367472 23.564857 " transform="matrix(-0.0765694,-0.259909,0.259909,-0.0765694,16.476666,19.793424)"/>
<path style="fill-rule:nonzero;fill:url(#linear4);stroke-width:2.460453;stroke-linecap:round;stroke-linejoin:miter;stroke:rgb(53.333336%,54.11765%,52.156866%);stroke-opacity:1;stroke-miterlimit:4;" d="M -30.449734 32.810498 L -28.209993 34.747816 L -19.711306 27.377295 L -19.43031 26.678554 L -18.340914 26.653817 C -18.783623 25.095613 -21.287383 22.268933 -23.152927 22.275427 L -23.082629 23.363216 L -23.749118 23.73798 Z M -30.449734 32.810498 " transform="matrix(-0.0765694,-0.259909,0.259909,-0.0765694,16.476666,19.793424)"/>
<path style="fill:none;stroke-width:2.460453;stroke-linecap:round;stroke-linejoin:round;stroke:rgb(100%,100%,100%);stroke-opacity:1;stroke-miterlimit:4;" d="M -23.808945 28.379433 L -28.171266 33.647058 " transform="matrix(-0.0765694,-0.259909,0.259909,-0.0765694,16.476666,19.793424)"/>
<path style=" stroke:none;fill-rule:nonzero;fill:url(#radial5);" d="M 31.066406 28.304688 C 30.265625 25.589844 29.980469 23.433594 27.890625 23.625 C 26.207031 23.78125 26.089844 26.191406 27.828125 26.859375 C 29.507812 27.5 31.066406 28.304688 31.066406 28.304688 Z M 31.066406 28.304688 "/>
<use xlink:href="#surface11" mask="url(#mask2)"/>
<path style=" stroke:none;fill-rule:nonzero;fill:rgb(100%,100%,100%);fill-opacity:1;" d="M 24.960938 22.847656 C 25.210938 22.773438 25.472656 22.917969 25.546875 23.167969 C 25.621094 23.417969 25.476562 23.679688 25.226562 23.753906 C 24.976562 23.828125 24.714844 23.683594 24.640625 23.433594 C 24.566406 23.183594 24.710938 22.921875 24.960938 22.847656 Z M 24.960938 22.847656 "/>
<use xlink:href="#surface14" mask="url(#mask3)"/>
<path style=" stroke:none;fill-rule:evenodd;fill:url(#linear6);" d="M 15.335938 21.15625 C 16.332031 21.253906 17.234375 20.976562 17.609375 20.839844 C 17.675781 20.472656 17.96875 19.761719 18.972656 19.714844 L 18.621094 19.09375 C 18.621094 19.09375 17.308594 19.992188 15.910156 20.257812 Z M 15.335938 21.15625 "/>
</g>
</svg>
